<svg width="93" height="93" viewBox="0 0 93 93" fill="none" xmlns="http://www.w3.org/2000/svg">
<path d="M45.9111 0L44.8198 0.0497356L44.2437 0.0686825H44.1002H44.0438L43.9403 0.1871L42.969 0.352886L42.9031 0.364728C42.6562 0.56367 42.3881 0.416832 42.1459 0.544723C41.4328 0.713388 40.6994 0.777994 39.9681 0.73656C39.9023 0.698666 39.7188 1.03261 39.5495 1.02787C39.3143 0.985238 39.1144 0.873925 38.9451 0.86682C37.9762 1.37839 36.9908 1.44233 35.9678 1.57733C35.5771 1.62353 35.1892 1.69153 34.806 1.78101C34.7708 1.78955 34.7362 1.80063 34.7025 1.81416C34.4532 2.13626 34.1875 1.98942 33.8418 1.99416L33.7336 2.01784C33.2695 2.11987 32.7973 2.18011 32.3225 2.19784L32.2614 2.20968H32.2496L31.8592 2.34468C31.5817 2.44652 31.2642 2.55072 30.8762 2.67388C30.9844 2.58862 31.3465 2.43704 31.4053 2.40389C31.1702 2.4702 30.8974 2.5673 30.6363 2.64072L30.5658 2.66441L30.514 2.67625L30.1707 2.85624L30.1189 2.8823C29.0982 3.42702 27.96 3.93148 26.9981 4.50462L26.937 4.53778L26.5184 4.75567L26.4596 4.78409C26.4387 4.79789 26.4167 4.80978 26.3937 4.81961C26.2267 4.89067 26.1585 5.19618 26.1585 5.19618C24.5123 5.50881 23.3976 6.45852 21.9442 7.2235C21.5882 7.42551 21.2081 7.58072 20.813 7.68533L20.7424 7.72086C20.636 7.92361 20.4807 8.09625 20.2909 8.22295L20.2415 8.26084L20.0322 8.41242L19.6018 8.73452C19.3055 8.95477 19.0115 9.19161 18.7293 9.41897L18.3248 9.76238L18.2495 9.82396L18.219 9.87606C18.1888 9.90614 18.1557 9.93312 18.1202 9.95659C17.8003 10.075 17.4546 10.2313 17.3088 10.4989C16.8719 11.1215 16.3609 11.6878 15.7872 12.1852C15.6155 12.3273 15.4462 12.4742 15.2792 12.621L15.1969 12.6944C14.7454 13.1018 14.275 13.4523 13.8541 13.8502L13.7788 13.9212C13.1695 14.3956 12.6481 14.9744 12.2384 15.6312L12.1584 15.707C11.789 15.9833 11.4414 16.2882 11.119 16.6188L11.0672 16.6685C10.8634 16.8501 10.6541 17.0277 10.4393 17.2014L10.3782 17.2654L9.79962 17.829L9.15523 18.7479C8.93887 19.0629 8.73191 19.3637 8.53907 19.6598C8.52731 19.6598 8.48733 19.6787 8.47557 19.7C8.4538 19.717 8.43011 19.7313 8.40502 19.7427C7.88543 20.6081 7.42423 21.5077 7.02453 22.4355L6.4601 23.6978L5.77809 25.2325C5.61582 25.5972 5.45354 25.962 5.30773 26.3172C4.92204 26.5849 5.07256 27.1035 4.80445 27.4517C4.7927 27.4777 4.78094 27.5038 4.77153 27.5298C4.14125 28.9508 3.67325 30.0166 3.64738 30.0829L3.40045 30.765L3.16527 31.4755C3.00849 31.9587 2.85562 32.445 2.70667 32.9344C2.41976 33.9173 2.15871 34.9191 1.93059 35.9351C1.46722 37.9861 1.14271 40.0663 0.959309 42.1616C0.931087 42.46 0.905218 42.7631 0.886404 43.0568C0.115023 46.183 0.726483 49.3259 0.787629 52.6344C0.814368 51.9475 0.717156 51.2615 0.500713 50.6095C0.627709 52.085 0.754704 53.5581 1.44142 54.8726L1.08395 54.676C2.73019 59.3274 4.93615 63.8178 6.15907 68.6304L6.51419 69.2935L6.77524 69.8051C6.9281 70.0987 7.02688 70.3166 7.12565 70.5156C7.34889 70.996 7.59614 71.4648 7.86646 71.92C8.22825 72.5119 8.66285 73.0554 9.15993 73.5376C9.03764 73.3623 8.90594 73.1871 8.79071 73.0047C8.63549 72.6755 8.85185 72.9597 9.19286 73.4097C9.53387 73.8597 10.0113 74.4684 10.3264 74.8307C10.2327 74.5703 10.1542 74.3046 10.0912 74.035C10.0036 73.7953 9.89827 73.5625 9.7761 73.3387C9.68155 73.1478 9.57715 72.962 9.46331 72.7821L9.29869 72.4908C9.76904 73.1634 10.2582 73.8242 10.7662 74.4731C11.2021 75.0226 11.6458 75.561 12.0973 76.0883C12.028 76.0063 11.949 75.9332 11.8621 75.8704L12.189 76.2233C12.313 76.3505 12.4285 76.4858 12.5347 76.6283C12.1984 76.2944 11.7422 75.7994 11.3588 75.392C11.1213 75.1135 10.8668 74.8501 10.5969 74.6034C10.9343 74.965 11.2485 75.3478 11.5376 75.7496C11.8364 76.1622 12.1743 76.5445 12.5465 76.8912C12.2083 76.7015 11.9198 76.4336 11.7046 76.1096C12.4101 77.1043 13.2685 77.983 13.5436 78.433C13.1378 77.9383 12.6866 77.4831 12.1961 77.0736C12.4947 77.417 12.9651 77.9333 13.4119 78.3927C13.6471 78.6296 13.8823 78.8522 14.0751 79.0346C14.268 79.2169 14.4561 79.3709 14.5737 79.468C14.6631 79.6531 14.7934 79.8151 14.9547 79.9417C15.1899 80.1785 15.4909 80.4414 15.7637 80.683C16.274 81.1187 16.6762 81.4574 16.3375 81.2679C16.4928 81.3745 16.7303 81.5616 16.9937 81.77C17.3441 82.059 17.7415 82.3858 18.0049 82.625C17.9015 82.6558 16.4575 81.5687 15.8178 81.114C13.0474 78.7456 15.966 81.0548 15.3733 80.4343L14.8653 79.9606L14.3644 79.4869C14.0257 79.1696 13.7059 78.8427 13.379 78.5135C13.5554 78.7362 12.5018 77.822 13.7788 79.1032C12.7229 78.272 11.7817 77.3027 10.9802 76.221C10.7262 76.0031 11.4059 76.7965 11.6175 77.0404C11.4858 76.9409 11.0931 76.5928 10.9261 76.4815C10.7591 76.3702 10.7827 76.5146 11.4788 77.3341C11.2013 77.012 12.3066 78.1133 11.6034 77.2346C11.761 77.3957 11.9727 77.642 12.2031 77.9025C12.4336 78.163 12.6735 78.433 12.8781 78.6675C13.2826 79.1269 13.5131 79.4277 13.1133 79.1175C13.5154 79.5059 14.1104 80.0411 14.6984 80.5503C15.2863 81.0595 15.8742 81.5308 16.2223 81.8221C16.3681 82.059 15.6108 81.3484 15.2393 81.069C16.0506 81.7605 16.8855 82.4426 17.7298 83.0797C17.5134 82.8618 17.29 82.6511 17.0736 82.4332C17.8471 83.1005 18.6755 83.7003 19.5501 84.226C20.3167 84.6997 21.0646 85.0952 21.8783 85.5665C21.5019 85.4576 21.1442 85.2915 20.8177 85.0739C20.5825 84.927 20.2932 84.7636 20.0204 84.6002C19.7476 84.4368 19.4725 84.2379 19.2043 84.091C19.4475 84.3607 19.7428 84.5775 20.0722 84.7281C20.218 84.8086 20.3403 84.8702 20.5754 85.0052C20.8106 85.1402 21.0881 85.306 21.4997 85.576C21.7043 85.7394 21.7349 85.8128 21.6079 85.7797C22.0782 86.0165 22.5486 86.2391 23.0189 86.4641C23.3388 86.6631 23.2259 86.6299 23.0918 86.5707C24.1948 87.1036 24.216 87.0444 24.3218 87.0444C24.4578 87.0718 24.5888 87.1206 24.7098 87.1888C24.9685 87.3096 25.4154 87.5228 26.2244 87.8993C25.7399 87.6436 25.4154 87.473 25.1355 87.338C24.8557 87.203 24.6652 87.113 24.4817 87.0373C23.9619 86.8221 23.4587 86.5679 22.9766 86.277C22.5603 85.9597 23.0213 86.1847 23.6633 86.4925C23.9808 86.6488 24.3406 86.8194 24.6628 86.9662C24.985 87.113 25.2437 87.2315 25.3683 87.2741C26.135 87.6862 26.5442 87.9633 27.0146 88.2214C27.5855 88.5459 28.1855 88.8155 28.8066 89.0267C28.6164 88.9432 28.4138 88.892 28.2069 88.8751C27.7634 88.7527 27.335 88.5803 26.9299 88.3612C26.3537 88.1409 26.4948 88.2191 26.8029 88.3896C27.1081 88.5361 27.4049 88.6998 27.6919 88.8798C27.9647 88.9888 27.8894 88.9035 27.9271 88.8798C27.9647 88.8562 28.1223 88.8988 28.8678 89.2209H28.7972L29.4275 89.4269C32.2261 89.6188 34.5661 90.4406 36.8826 91.4092L37.6658 91.5892L38.3407 91.7598L37.9974 91.5395C38.3666 91.6106 38.7852 91.6935 39.2203 91.7456C39.6554 91.7977 40.0857 91.864 40.5279 91.9066C41.4004 92.0084 42.207 92.0653 42.7526 92.0842C42.4631 92.1288 42.1692 92.1368 41.8778 92.1079C41.4498 92.0913 40.9206 92.0369 40.3773 91.9942C42.7165 92.3115 45.0846 92.3496 47.4327 92.1079C46.0827 92.0274 45.8875 92.0274 44.6105 91.9232C44.9803 91.8774 45.3528 91.8576 45.7253 91.864C46.0291 91.8597 46.3329 91.8716 46.6354 91.8995C47.4327 91.9702 48.2351 91.9567 49.0295 91.8592C49.1048 92.0179 48.324 92.0369 48.919 92.1624C49.8597 91.9919 51.4683 91.8521 52.5384 91.5916C52.8488 91.6342 52.7406 91.7148 52.2703 91.845C51.9476 91.9262 51.621 91.991 51.2919 92.0392C50.8733 92.0984 50.3677 92.1742 49.7703 92.2216C49.5563 92.2216 49.3 92.2216 49.086 92.2405C48.8719 92.2595 48.6156 92.2595 48.3945 92.2761L47.014 92.3566C46.5578 92.3803 46.1086 92.3945 45.6853 92.3945C45.2862 92.3968 44.8872 92.3755 44.4906 92.3305C44.7893 92.3779 45.0879 92.4111 45.3913 92.4513C43.5805 92.4679 42.4892 92.3566 40.9418 92.2713L41.0053 92.2571L40.1963 92.3187L41.0311 92.4158C40.1239 92.4325 39.2166 92.3897 38.3148 92.2879C38.5782 92.3234 38.7852 92.3637 39.0321 92.3827C39.2791 92.4016 39.5025 92.43 39.7165 92.4419C40.0422 92.4644 40.3691 92.4644 40.6948 92.4419C41.2263 92.4277 41.5862 92.3542 42.2047 92.34C43.3641 92.4348 44.1684 92.5437 44.8833 92.6147C45.5858 92.7011 46.2956 92.7098 46.9999 92.6408C47.1293 92.7119 48.4416 92.7521 47.3927 92.8563C46.7412 92.9226 46.1956 92.8918 45.777 92.9013C45.3584 92.9108 45.0974 92.9013 45.0339 92.9582C45.7206 92.9724 45.9299 92.9866 46.2333 92.9937C46.3814 92.9937 46.5555 93.0079 46.8212 92.9937C47.087 92.9795 47.4468 92.9771 47.9689 92.9558C48.3569 92.7924 49.902 92.5792 51.3578 92.2761C52.1291 92.1411 53.004 92.0037 53.8412 91.845L54.4645 91.7219L55.05 91.6106C55.4451 91.5277 55.7862 91.4732 56.0872 91.414C54.5797 91.7764 53.0675 92.1577 53.4697 92.1955C54.0542 92.0392 54.6481 91.9205 55.2476 91.8403C55.8308 91.7456 56.2424 91.6556 56.0002 91.6035C56.8774 91.414 58.0674 91.1085 59.0575 90.8385C59.6676 90.6253 60.2981 90.4768 60.9389 90.3956C59.4102 90.9353 57.8505 91.3813 56.2683 91.7314C56.661 91.6485 57.0538 91.594 56.8327 91.6935L55.7791 91.9303L54.7302 92.1482C55.1465 92.0937 55.4193 92.0511 55.6521 92.0203C55.8849 91.9895 56.059 91.9611 56.2495 91.9279C56.8656 91.8191 57.4749 91.6744 58.0744 91.4945C57.9357 91.5348 57.684 91.5561 57.8722 91.4945C58.4037 91.3216 59.0198 91.1937 59.5302 91.0066L59.6407 91.1464C60.3792 90.8811 61.4798 90.5472 62.7168 90.0995C64.0476 89.6265 65.3409 89.0525 66.5855 88.3825L66.3503 88.5767C67.0822 88.2312 67.7773 87.8114 68.4246 87.3238C68.9467 86.9354 69.4852 86.5352 70.5247 85.8531C69.9579 86.3054 70.2707 86.1823 70.4212 86.1799C70.6729 85.9976 70.8916 85.8507 71.1267 85.7062C71.3619 85.5618 71.5454 85.441 71.7547 85.3226C72.1686 85.0857 72.5801 84.8489 73.1046 84.496C72.4861 84.8749 72.6601 84.6997 72.8812 84.496C73.1022 84.2923 73.3515 84.065 72.9165 84.3539C72.8412 84.3065 73.3233 83.9134 73.9418 83.4066C74.5603 82.8997 75.3105 82.3053 75.8232 81.8861C76.002 81.7961 75.9008 81.9287 75.6798 82.149C75.4587 82.3692 75.1012 82.6747 74.7743 82.9637C74.1088 83.5179 73.5585 83.9844 74.4028 83.4658C74.7271 83.2322 75.0272 82.9664 75.2988 82.6724C75.3811 82.5634 75.2329 82.6368 74.8708 82.9092C75.5128 82.4024 76.3101 81.7392 77.0532 81.1045C77.7964 80.4698 78.4807 79.8493 78.9346 79.4727L80.4068 77.7343C80.5997 77.4975 80.7714 77.2843 80.936 77.0593C81.1094 76.8209 81.2703 76.5734 81.4181 76.3181C80.7502 77.1257 80.8396 77.2867 79.88 78.1985C80.1599 77.803 80.4562 77.4193 80.7243 77.0144C81.9543 75.5744 82.9679 74.4447 83.7417 73.3789C83.5065 73.7744 83.2407 74.1557 82.9844 74.537L83.0197 74.4778C82.7829 74.852 82.5281 75.2136 82.2553 75.5625C81.9802 75.9581 81.7309 76.2731 81.8367 76.2233C82.514 75.167 83.2478 74.4565 84.085 73.0545L84.0521 73.116C84.8258 71.8892 85.5266 70.8543 86.1216 69.9069C86.6785 69.062 87.1281 68.1502 87.4598 67.1928C87.2364 67.6664 86.639 68.5451 86.7425 68.2277C87.1306 67.6854 87.8667 66.0749 87.9184 66.1673L87.695 66.7167C88.1862 65.7588 88.6212 64.7726 88.9979 63.7634C89.0226 63.6511 89.0226 63.5347 88.9979 63.4223C89.0206 63.1379 89.0881 62.8589 89.1978 62.5958C90.3972 59.5169 90.6958 56.4049 91.8364 53.2929L91.9023 52.6131C92.0505 51.0263 92.1375 49.3708 92.1798 47.5188C92.2621 47.4856 92.3115 48.2506 92.2903 49.1435C92.2668 49.5958 92.2715 50.0671 92.2315 50.5124L92.1892 51.1211L92.1586 51.5947C92.4456 50.3087 92.3938 48.3761 92.4973 46.5951C92.5279 44.9373 92.2903 43.6939 92.2198 43.9615C92.208 40.84 91.2367 37.4983 90.6253 34.3554C91.0768 36.9417 91.3308 39.8903 91.7824 42.4766C91.6201 41.92 91.653 41.0034 91.4931 40.4469C90.6159 39.4995 91.0415 37.8582 90.3619 36.5485C91.4319 37.1406 90.8464 38.2064 91.0086 38.7748C91.2438 37.4983 90.0044 36.352 90.59 35.272L90.3948 35.632C90.0726 34.5189 90.1055 33.6023 89.2189 32.6502C89.5764 32.8468 89.3788 33.2068 89.7363 33.4034C89.2519 31.7337 88.5604 30.424 88.0901 28.7519C88.4146 29.865 89.2918 30.8171 89.4188 32.2902C89.614 31.9302 89.2566 31.7337 89.4518 31.3737C89.9715 32.1268 90.4912 32.8823 90.456 33.7989C89.487 30.4571 87.7679 27.6411 87.1635 24.4936C86.6767 22.8357 86.9659 24.8536 86.9659 24.8536C86.1593 22.0708 84.0497 19.97 82.3729 17.5117C82.2154 17.3175 82.0789 17.1398 81.9425 16.9622C81.8061 16.7846 81.665 16.6117 81.5286 16.4435C79.8307 14.8804 78.4337 13.1752 76.4864 11.47C76.3477 11.3563 76.2089 11.2331 76.0702 11.1242C75.7856 10.8874 75.494 10.6505 75.1859 10.4137C74.264 9.69133 73.2339 8.89793 71.9663 8.00269L72.7659 8.44321C71.9632 7.80618 71.0961 7.25606 70.179 6.80193C69.3991 6.20204 68.557 5.68906 67.6673 5.27197C67.4556 5.16539 67.2369 5.07303 67.0276 4.95461C64.9278 3.89649 62.7489 3.00563 60.5109 2.2902L60.405 2.25705C59.9407 2.09325 59.4652 1.96344 58.9822 1.86864L58.8928 1.84732L58.5895 1.77627C58.5895 1.73127 58.9752 1.75969 58.7118 1.63417L58.6506 1.60812C58.0062 1.1155 57.1478 1.42338 56.3647 1.18181H56.3012H56.2377H56.1718C55.7015 1.08234 55.3017 0.862083 54.8196 1.0255H54.7443L54.0623 0.947344H53.987C53.7707 0.994712 53.7284 1.23155 53.6625 1.19602C52.8417 0.485514 51.6423 0.779191 50.6311 0.568406L50.4876 0.8384C50.1184 0.719982 49.8268 0.300782 49.4881 0.286572C48.4063 0.213152 47.2868 0.203679 46.158 0.0497356H46.0569H45.904L45.9111 0ZM22.1958 74.1581C22.3816 74.2978 22.5321 74.4234 22.7085 74.5489L22.558 74.466L22.1958 74.1581ZM21.9865 73.9734C19.7773 72.0466 17.81 69.8555 16.1282 67.4485C16.2929 67.6096 16.4692 67.8251 16.7303 68.0951C16.9913 68.3651 17.2571 68.6469 17.4499 68.8293C17.2947 68.7132 17.4734 69.0093 17.3559 68.9075L17.6686 69.2485C17.7721 69.3574 17.885 69.4617 17.9932 69.573L18.6517 70.2148C18.9527 70.6885 18.9974 70.8685 18.741 70.6885C19.0726 71.0769 19.5618 71.5766 19.9546 71.9579C20.3473 72.3392 20.6601 72.6447 20.606 72.7181C21.5655 73.6181 20.3826 72.3416 20.3403 72.2303L20.4367 72.2847C20.1027 71.9579 19.7876 71.6169 19.4677 71.2806C19.496 71.1527 19.7617 71.4534 20.0463 71.7826C20.2539 72.0693 20.5233 72.3049 20.8341 72.4718C20.94 72.4387 21.0693 72.5121 21.2292 72.6518C21.3891 72.7916 21.5538 72.9952 21.7443 73.2131C21.9348 73.431 22.1441 73.6868 22.3463 73.9C22.5295 74.1145 22.7362 74.3076 22.9625 74.4755C22.6313 74.33 22.3078 74.1671 21.9935 73.9876L21.9865 73.9734ZM67.585 86.5257C66.6654 86.9354 65.5954 87.3499 64.8663 87.7288L65.6659 87.1936L66.3033 86.7436C70.717 84.5009 74.7291 81.5339 78.175 77.9641C77.9398 78.2625 77.6153 78.6462 77.2743 79.0346L76.6369 79.7261L76.0913 80.3135C76.2865 80.0624 75.8373 80.4201 76.0043 80.2235C75.6422 80.6001 75.2706 80.9695 74.8849 81.3177C74.4992 81.6658 74.1206 82.0282 73.7255 82.3669C72.9235 82.9021 72.6507 82.966 73.0199 82.6037C72.3144 83.1081 71.3901 83.8068 70.6094 84.3397C69.8286 84.8726 69.1983 85.2444 69.1442 85.1639C67.2628 86.322 69.8145 84.9105 69.9932 84.8323L69.8356 84.9413C70.1649 84.7305 70.4965 84.5197 70.821 84.2971C71.1456 84.0744 71.4701 83.8542 71.7923 83.6245C71.9569 83.6363 71.4043 84.02 70.7693 84.4179C70.2449 84.6986 69.7514 85.0344 69.2971 85.4197C69.1752 85.6351 68.9893 85.8066 68.7656 85.9099C68.3841 86.1285 67.9916 86.3269 67.5897 86.5044L67.585 86.5257ZM65.7341 87.0159L65.0004 87.3925C65.0827 87.3404 65.1556 87.2954 65.2167 87.2504C65.4308 87.158 65.6354 87.0609 65.84 86.9591L65.7341 87.0159ZM52.7665 82.4118C52.7453 82.4133 52.7241 82.4133 52.703 82.4118L53.2204 82.3147L52.7829 82.4L52.7665 82.4118ZM14.8606 79.0227C14.7031 78.8617 14.5431 78.6983 14.3903 78.5348L14.7666 78.8996L14.8606 79.0227ZM22.5744 85.891C22.2748 85.76 21.9855 85.6065 21.709 85.4315C21.6147 85.372 21.5299 85.2986 21.4573 85.2136C21.3579 85.106 21.2448 85.0121 21.121 84.9342C20.9211 84.7921 20.5872 84.5836 20.0181 84.2473C19.8205 84.0436 19.5759 83.8116 19.3549 83.5771C19.1338 83.3426 18.9221 83.1034 18.7763 82.9353C18.4824 82.5705 18.4377 82.4213 19.0821 82.7766C18.7199 82.4924 18.4212 82.2484 18.1413 82.04L17.3888 81.4716C16.9184 81.1093 16.4645 80.7611 15.8413 80.1998C15.4956 79.7664 15.6602 79.8588 15.8931 79.9866C17.0914 81.0767 18.3475 82.1006 19.6559 83.0537L19.5524 82.9968C19.3455 82.8832 19.3008 82.895 19.6441 83.1887C19.9713 83.4792 20.34 83.7187 20.7377 83.8992C20.8307 83.9299 20.9218 83.9663 21.0105 84.0081C22.108 84.7423 23.2345 85.4291 24.39 86.0686C25.0908 86.4538 25.8089 86.8249 26.5442 87.1817C27.5838 87.7338 28.6523 88.2287 29.745 88.6643C29.6556 88.6158 29.5726 88.5561 29.4981 88.4867L30.1189 88.7235C29.8807 88.7718 29.6347 88.7653 29.3993 88.7046C29.1171 88.6359 28.9148 88.5956 28.6937 88.5483C28.4018 88.4792 28.115 88.3898 27.8354 88.2806C27.6402 88.2049 27.4097 88.1243 27.1063 87.9917C26.8029 87.8591 26.4713 87.7146 26.0574 87.518C25.8768 87.4848 25.7018 87.4258 25.5377 87.3428C25.1715 87.1975 24.8142 87.0307 24.4676 86.843C24.0584 86.6062 23.5881 86.3694 23.1318 86.1065C22.6756 85.8436 22.2052 85.5618 21.7913 85.2823C22.0453 85.4907 22.3063 85.6873 22.5627 85.8791L22.5744 85.891Z" fill="#CF2A2A"/>
<path d="M43.5 55H49.5V61H43.5V55ZM43.5 31H49.5V49H43.5V31ZM46.47 16C29.91 16 16.5 29.44 16.5 46C16.5 62.56 29.91 76 46.47 76C63.06 76 76.5 62.56 76.5 46C76.5 29.44 63.06 16 46.47 16ZM46.5 70C33.24 70 22.5 59.26 22.5 46C22.5 32.74 33.24 22 46.5 22C59.76 22 70.5 32.74 70.5 46C70.5 59.26 59.76 70 46.5 70Z" fill="white"/>
</svg>
