<svg width="67" height="19" viewBox="0 0 67 19" fill="none" xmlns="http://www.w3.org/2000/svg">
<g clip-path="url(#clip0_185_619)">
<path d="M65.0184 8.69515C64.9684 8.14566 64.6521 7.57952 63.9527 7.57952C63.6863 7.57952 63.5198 7.57952 63.0036 7.57952C62.6373 7.57952 62.3209 7.57952 62.0212 7.57952C61.3884 7.57952 60.9721 7.91254 60.9721 8.6785C60.9721 8.7118 61.0221 9.76083 61.0221 10.2104V11.8256C61.0221 12.4916 60.9888 13.0245 60.9222 13.4241C60.8556 13.8237 60.7224 14.1401 60.5392 14.3566C60.3561 14.573 60.1063 14.7063 59.7899 14.7895C59.4735 14.8728 59.0739 14.9061 58.591 14.9061C58.1081 14.9061 57.6919 14.8728 57.3921 14.7895C57.0758 14.7063 56.826 14.573 56.6428 14.3566C56.4597 14.1401 56.3265 13.8404 56.2432 13.4241C56.1599 13.0078 56.1266 12.4916 56.1266 11.8256V10.2104C56.1266 9.54437 56.1599 9.02818 56.2432 8.62855C56.3265 8.22892 56.443 7.9292 56.6428 7.71273C56.826 7.49626 57.0758 7.36305 57.3921 7.2798C57.542 7.24649 57.6919 7.21319 57.875 7.19654C58.0915 7.17989 58.3246 7.16324 58.591 7.16324C58.9074 7.16324 59.4902 7.21319 59.6567 7.22984C59.74 7.22984 59.8232 7.24649 59.8898 7.22984C60.3894 7.19654 60.739 7.03003 60.739 6.46389C60.739 6.18081 60.739 6.03095 60.739 5.68128C60.739 5.3316 60.739 5.03188 60.739 4.74881C60.739 4.38248 60.5559 4.14936 60.1562 4.09941C60.1396 4.09941 60.1063 4.09941 60.0397 4.08276C59.8066 4.04945 59.1405 3.98285 58.591 3.98285C58.4911 3.98285 58.4079 3.98285 58.3079 3.98285C57.2423 3.9995 56.3265 4.09941 55.5771 4.28257C54.7446 4.48239 54.0785 4.83206 53.5457 5.31495C53.0295 5.79784 52.6465 6.46389 52.3968 7.26315C52.1636 8.07906 52.0471 9.09478 52.0471 10.3103V11.7257C52.0471 12.9246 52.1636 13.9236 52.3968 14.7396C52.6299 15.5555 53.0129 16.2049 53.5457 16.6878C54.0619 17.1706 54.7446 17.537 55.5771 17.7368C56.4097 17.9532 57.4088 18.0532 58.591 18.0532C59.7733 18.0532 60.7723 17.9532 61.6049 17.7368C62.4375 17.5203 63.1035 17.1706 63.6197 16.6878C64.1359 16.2049 64.5189 15.5388 64.752 14.7396C64.9851 13.9236 65.1017 12.9246 65.1017 11.7257V10.327C65.1017 9.74418 65.0684 9.21134 65.0184 8.69515Z" fill="#545454"/>
<path d="M59.1739 8.46211C59.024 8.41216 58.8242 8.39551 58.5744 8.39551C58.3247 8.39551 58.1415 8.41216 57.975 8.46211C57.8251 8.51207 57.6919 8.59532 57.6087 8.71188C57.5087 8.82844 57.4588 9.0116 57.4088 9.24472C57.3755 9.47784 57.3589 10.2105 57.3589 10.5935V11.5426C57.3589 11.9256 57.3755 12.5583 57.4088 12.7914C57.4421 13.0246 57.5087 13.2077 57.6087 13.3243C57.7086 13.4408 57.8251 13.5241 57.975 13.574C58.1248 13.624 58.3247 13.6407 58.5744 13.6407C58.8242 13.6407 59.0074 13.624 59.1739 13.574C59.3237 13.5241 59.4569 13.4408 59.5402 13.3243C59.6401 13.2077 59.6901 13.0246 59.7234 12.7914C59.7567 12.5583 59.7733 11.9256 59.7733 11.5426V10.5935C59.7733 10.2105 59.7567 9.47784 59.7234 9.24472C59.6901 9.0116 59.6235 8.82844 59.5402 8.71188C59.4569 8.59532 59.3237 8.51207 59.1739 8.46211Z" fill="#DF1C46"/>
<path d="M18.3949 12.5749C18.2784 12.5749 18.2118 12.6748 18.2118 12.7747C18.2118 13.0911 18.2617 13.2576 18.295 13.4241C18.3949 13.9236 18.5115 14.1901 18.7446 14.4398C18.9278 14.623 19.1942 14.7229 19.5106 14.7895C19.827 14.8561 20.2432 14.8728 20.7261 14.8728C21.4255 14.8728 22.1748 14.8728 22.974 14.8728C23.7233 14.8728 24.5559 14.8728 25.4884 14.8561C25.5883 14.8561 25.6882 14.9394 25.6882 15.0393L25.6715 17.82C25.6715 17.9199 25.5883 18.0032 25.4884 18.0032C24.6392 18.0365 23.4236 18.0532 22.7576 18.0532C22.0249 18.0532 21.2423 18.0532 20.3764 18.0532C19.1776 18.0532 18.1785 17.9366 17.3792 17.6868C16.58 17.4371 15.9472 17.0707 15.481 16.5712C15.0147 16.0717 14.6651 15.4389 14.4819 14.6896C14.2821 13.9403 14.1822 12.7248 14.1822 11.709V10.3103C14.1822 9.24464 14.2821 8.31217 14.4986 7.52957C14.715 6.74696 15.0647 6.08091 15.5642 5.56472C16.0638 5.04853 16.7132 4.6489 17.5124 4.38248C18.3117 4.11606 19.3108 3.98285 20.493 3.98285C22.6244 3.98285 24.1396 4.43243 25.0554 5.31495C25.9713 6.19747 26.4208 7.44631 26.4208 9.02818V9.74418C26.4208 10.3103 26.3875 10.7599 26.3209 11.1096C26.2543 11.4593 26.1378 11.759 25.9546 11.9754C25.7715 12.1919 25.5383 12.3418 25.2553 12.425C24.9722 12.5083 24.6059 12.5582 24.1896 12.5582L18.3949 12.5749ZM20.3764 7.17989C19.9269 7.17989 19.5439 7.21319 19.2775 7.29645C18.9944 7.3797 18.7779 7.51291 18.6114 7.69608C18.4449 7.89589 18.345 8.16231 18.2784 8.49534C18.2451 8.62855 18.2118 8.84501 18.1951 9.21134C18.1951 9.31125 18.2784 9.39451 18.3783 9.39451H22.3912C22.4912 9.39451 22.5911 9.31125 22.5744 9.21134C22.5411 8.87832 22.5245 8.6785 22.4912 8.49534C22.4245 8.16231 22.3246 7.89589 22.1415 7.69608C21.975 7.49626 21.7418 7.36305 21.4754 7.29645C21.209 7.21319 20.8427 7.17989 20.3764 7.17989Z" fill="#545454"/>
<path d="M31.6494 18.0364H28.086C27.9528 18.0364 27.8529 17.9365 27.8529 17.8033V8.99476C27.8529 8.04564 27.9694 7.24638 28.2025 6.61364C28.4357 5.96424 28.802 5.44805 29.2849 5.06507C29.7678 4.68209 30.3672 4.39902 31.0832 4.23251C31.7992 4.06599 32.6318 3.99939 33.5809 3.99939C34.0638 3.99939 34.5467 3.99939 35.0129 3.99939C35.4125 3.99939 35.8788 4.01604 36.395 4.03269C36.5282 4.03269 36.6281 4.14925 36.6281 4.26581V6.96331C36.6281 7.09652 36.5282 7.17978 36.395 7.17978C36.012 7.17978 35.5291 7.17978 35.1794 7.17978C34.7298 7.17978 34.3802 7.17978 33.9805 7.17978C33.5309 7.17978 33.148 7.19643 32.8816 7.29634C32.5985 7.37959 32.382 7.56276 32.2321 7.72927C32.0823 7.89578 31.9824 8.07895 31.9324 8.34537C31.8825 8.62844 31.8658 9.06137 31.8658 9.4277V17.8033C31.8825 17.9198 31.7826 18.0364 31.6494 18.0364Z" fill="#545454"/>
<path d="M38.3098 18.0364C38.1766 18.0364 38.0767 17.9365 38.0767 17.8033V8.99476C38.0767 8.06229 38.1933 7.27969 38.4264 6.64694C38.6595 6.01419 39.0258 5.498 39.5254 5.09837C40.0249 4.69874 40.6743 4.41567 41.4736 4.24916C42.2728 4.08265 43.222 3.99939 44.3376 3.99939C45.4532 3.99939 46.4024 4.08265 47.2016 4.24916C48.0009 4.41567 48.6503 4.69874 49.1498 5.09837C49.6494 5.498 50.0157 6.01419 50.2488 6.64694C50.4819 7.27969 50.5985 8.06229 50.5985 8.99476V17.8033C50.5985 17.9365 50.4986 18.0364 50.3654 18.0364H46.802C46.6688 18.0364 46.5689 17.9365 46.5689 17.8033V9.21123C46.5689 8.86155 46.5356 8.54518 46.4856 8.29541C46.4357 8.04564 46.3357 7.82918 46.1859 7.66266C46.036 7.49615 45.8029 7.36294 45.5198 7.29634C45.2201 7.21308 44.8371 7.17978 44.3376 7.17978C43.8547 7.17978 43.4551 7.21308 43.1554 7.29634C42.8556 7.37959 42.6392 7.49615 42.4893 7.66266C42.3394 7.82918 42.2395 8.04564 42.1896 8.29541C42.1396 8.54518 42.1063 8.86155 42.1063 9.21123V17.8033C42.1063 17.9365 42.0064 18.0364 41.8732 18.0364H38.3098Z" fill="#545454"/>
<path d="M5.42361 9.16141L10.1026 4.06612C10.1526 4.01617 10.2192 3.98287 10.2858 3.98287H14.2987C14.4985 3.98287 14.6151 4.23264 14.4652 4.3825L8.57069 10.7766C8.48744 10.8598 8.48744 10.993 8.55404 11.093L14.6484 17.6369C14.7816 17.7868 14.665 18.0199 14.4652 18.0199L10.4523 18.0365C10.3857 18.0365 10.3191 18.0032 10.2691 17.9533L5.44026 12.7248C5.30705 12.5583 5.02398 12.6582 5.02398 12.8746V17.8201C5.02398 17.9366 4.92407 18.0365 4.80751 18.0365H1.19419C1.07763 18.0365 0.977722 17.9366 0.977722 17.8201V0.28629C0.977722 0.169732 1.07763 0.0698242 1.19419 0.0698242H4.80751C4.92407 0.0698242 5.02398 0.169732 5.02398 0.28629V9.01155C5.00732 9.22801 5.27374 9.32792 5.42361 9.16141Z" fill="#545454"/>
<path d="M65.2016 1.3186H63.7529C62.7705 1.3186 61.9712 2.11786 61.9712 3.10029V6.31398C61.9712 6.33063 61.9879 6.34728 62.0045 6.34728H65.2182C66.2007 6.34728 66.9999 5.54802 66.9999 4.5656V3.11694C66.9999 2.11786 66.2007 1.3186 65.2016 1.3186ZM65.4514 4.09936C65.4514 4.48234 65.1516 4.78206 64.7687 4.78206H63.5365C63.5365 4.78206 63.5198 4.78206 63.5198 4.76541V3.53322C63.5198 3.15024 63.8195 2.85052 64.2025 2.85052H64.752C65.135 2.85052 65.4347 3.15024 65.4347 3.53322V4.09936H65.4514Z" fill="#DF1C46"/>
</g>
<defs>
<clipPath id="clip0_185_619">
<rect width="66.0222" height="18" fill="white" transform="translate(0.977722 0.0698242)"/>
</clipPath>
</defs>
</svg>
