<svg width="200" height="72" viewBox="0 0 200 72" fill="none" xmlns="http://www.w3.org/2000/svg">
<g clip-path="url(#clip0_168_526)">
<path d="M124.269 14.9356C124.952 15.8308 124.929 17.078 124.223 17.9503L123.547 18.7766C123.24 19.0291 123.17 19.4653 123.385 19.7943C124.253 21.1027 125.014 22.4876 125.659 23.9567C126.258 25.3263 125.59 26.9254 124.169 27.4534C122.855 27.9431 121.388 27.2621 120.828 25.9843C117.21 17.8049 109.09 12.5331 100.111 12.556C95.41 12.5637 90.9011 14.0021 87.0834 16.7031C83.3426 19.3505 80.5389 23.0079 78.9566 27.2774C78.5725 28.318 77.597 28.9684 76.5446 28.9837C76.2143 28.9913 75.8764 28.9301 75.5461 28.8077C74.1941 28.2874 73.5643 26.7418 74.0636 25.3875C74.3555 24.5917 74.6934 23.8189 75.0545 23.0691C75.2234 22.7171 75.1005 22.2963 74.7626 22.0897L72.8038 19.9014C72.2815 19.3199 72.197 18.4629 72.5964 17.7896C73.0035 17.1086 73.8101 16.772 74.5782 16.9556L77.5893 17.6825C78.0425 17.7513 78.3498 17.8126 78.5879 17.5218C79.8783 15.9456 81.3455 14.5148 82.9739 13.2447C83.2965 12.9922 83.3657 12.5331 83.1276 12.1964L81.7449 9.42659C81.2687 8.47016 81.5606 7.31479 82.4362 6.70267C83.3196 6.08291 84.5256 6.20533 85.263 6.99343L87.6749 9.56431C87.89 9.86272 88.2817 9.97749 88.6197 9.82446C90.5477 8.9522 92.5602 8.30182 94.6419 7.88865C95.0259 7.81213 95.2871 7.46017 95.2564 7.0776L95.1489 2.15772C95.1565 1.07122 95.9784 0.160698 97.0615 0.038275L97.1153 0.0306236C98.2828 -0.0994508 99.3505 0.680996 99.5656 1.82106C99.9036 3.61915 100.487 6.66442 100.487 6.66442C100.518 7.05464 100.833 7.3607 101.225 7.376C103.844 7.47547 106.394 7.94221 108.814 8.7303C109.144 8.83743 109.505 8.70735 109.697 8.40894L112.294 5.04231C113.016 4.193 114.252 4.00937 115.197 4.61383C116.173 5.2336 116.503 6.66442 115.965 7.68971L114.598 10.4672C114.368 10.8268 114.475 11.3088 114.836 11.5307C116.365 12.4719 117.793 13.566 119.115 14.7902C119.399 15.0504 119.829 15.0657 120.129 14.8208L121.15 14.2776C122.226 13.6961 123.547 13.9792 124.269 14.9356Z" fill="#F7AB29"/>
<path d="M190.705 54.0804C191.872 51.3335 190.259 49.3365 187.302 51.5325C184.529 53.5907 182.117 53.7208 182.117 53.7208C180.419 54.0421 178.299 53.7667 176.433 52.7643C174.92 51.9533 173.683 50.3847 172.961 48.3495C172.961 48.3495 172.961 48.3495 172.961 48.3418C172.899 48.1735 173.03 47.9898 173.214 47.9898C174.382 47.9822 175.519 47.8827 176.633 47.7909C177.078 47.7527 177.524 47.7144 177.977 47.6838C183.53 47.2936 187.248 45.419 189.038 42.1212C190.144 40.0859 190.182 37.8058 189.153 35.694C187.978 33.2991 185.597 31.5316 182.924 31.0802C178.545 30.338 172.254 31.8759 167.131 43.3913C167.069 43.5214 167.031 43.6515 166.992 43.7892C166.969 43.8428 166.946 43.8963 166.923 43.9499C165.602 47.4542 164.243 51.0734 161.731 53.5984C160.609 54.7308 158.935 55.6183 157.905 55.1439C157.713 55.0521 157.529 54.9067 157.36 54.7078C156.976 54.264 156.776 53.6366 156.815 52.9786L158.013 30.4221C158.036 30.0549 158.351 29.7641 158.727 29.7871C160.34 29.8865 162.061 29.986 164.112 30.0702C164.12 30.0702 164.12 30.0702 164.127 30.0702C165.61 30.1237 166.854 28.9301 166.847 27.4304C166.831 26.0302 165.664 24.8978 164.258 24.8443C162.706 24.783 161.347 24.7065 160.072 24.63C159.734 24.6071 159.526 24.2551 159.664 23.9414C160.018 23.1609 160.31 22.3116 160.517 21.4011C160.84 19.9932 159.964 18.593 158.551 18.2717C157.137 17.9503 155.732 18.8226 155.409 20.2304C154.987 22.0438 154.142 23.3522 153.143 23.7348C152.267 24.0715 150.854 24.0485 149.487 24.0255C148.496 24.0102 147.474 23.9949 146.476 24.0944C145.108 24.2398 144.025 25.3875 144.056 26.7648C144.094 28.1879 145.254 29.3127 146.683 29.3127C148.642 29.3127 150.293 29.3433 151.799 29.3969C152.352 29.4198 152.782 29.8865 152.751 30.4375L151.568 52.6878C151.461 54.7078 152.106 56.6283 153.381 58.0974C154.042 58.8625 154.81 59.4517 155.678 59.8572C156.484 60.2321 157.36 60.4311 158.259 60.4693C160.678 60.5535 163.305 59.4287 165.456 57.2557C166.939 55.7637 168.083 54.0727 169.02 52.3129C170.226 54.5089 171.924 56.2534 173.944 57.3322C175.672 58.2581 177.585 58.7631 179.59 58.8319C181.241 58.8931 182.962 58.6559 184.706 58.1357C185.428 57.9214 186.15 57.6613 186.872 57.3399C188.838 56.5289 190.167 55.3429 190.705 54.0804ZM173.852 42.7639C173.598 42.7716 173.437 42.5038 173.568 42.2819C174.436 40.7898 175.334 39.558 176.272 38.5862C178.376 36.4132 180.189 36.1225 181.264 36.1607C181.602 36.176 181.864 36.2143 182.04 36.2449C183.023 36.4132 184.007 37.1325 184.429 37.9971C184.713 38.5709 184.706 39.1142 184.421 39.6498C183.538 41.2719 181.249 42.2207 177.6 42.4808C177.124 42.5114 176.656 42.5573 176.179 42.5956C175.365 42.6644 174.597 42.7333 173.852 42.7639Z" fill="#19411D"/>
<path d="M144.939 31.9524C143.057 32.1054 143.342 35.0665 143.342 35.0665L143.15 45.4954C143.134 45.8321 142.704 45.9775 142.489 45.7173L132.926 33.9877C132.303 33.2072 131.305 32.794 130.329 32.9777C129.131 33.2072 128.263 34.2249 128.202 35.4108L128.102 54.3175C128.102 54.3864 128.094 54.4553 128.102 54.5241C128.117 55.1974 127.587 55.756 126.911 55.779C126.473 55.7943 126.174 55.5724 126.036 55.4499C125.897 55.3199 125.667 55.0368 125.651 54.6006L125.429 46.6355C125.436 45.725 125.375 38.6091 120.743 34.5921C119.207 33.2608 117.394 32.4344 115.32 32.0978C114.268 31.9294 113.2 31.96 112.163 32.2125C111.372 32.4115 110.527 32.7558 110.104 33.3679C109.19 34.6992 109.359 37.2242 112.908 37.163C114.729 37.1324 116.173 37.5609 117.279 38.5173C117.601 38.7928 117.893 39.1141 118.147 39.4584C118.446 39.864 118.116 40.4302 117.617 40.346C116.918 40.2312 116.196 40.193 115.451 40.2542C111.118 40.5909 107.6 44.0263 107.193 48.3341C106.702 53.5065 110.688 57.9673 115.827 58.1509C117.263 58.2045 118.638 57.9137 119.86 57.3552C120.382 57.118 120.981 57.3245 121.273 57.8142C121.58 58.3345 121.964 58.8242 122.418 59.2527C123.57 60.3392 125.052 60.9513 126.619 61.0125C126.758 61.0202 126.896 61.0202 127.042 61.0125C130.567 60.9131 133.371 58.0055 133.333 54.5088L133.855 44.1641C133.87 43.8733 134.239 43.7585 134.424 43.9881L143.849 55.8555C144.594 56.7966 145.892 57.118 147.013 56.6053C147.927 56.1845 148.496 55.2587 148.534 54.2563L148.488 37.4155C148.611 32.4803 146.821 31.7993 144.939 31.9524ZM116.034 52.925C113.968 52.8485 111.948 51.1039 112.025 49.0457C112.102 46.9875 114.26 44.7991 116.326 44.868C118.393 44.9445 120.251 47.2782 120.175 49.3364C120.098 51.387 118.101 52.9938 116.034 52.925Z" fill="#19411D"/>
<path d="M113.43 60.8212C112.478 60.6681 111.679 60.4156 111.042 60.1325C109.636 59.5128 108.96 58.7782 108.96 58.7782C108.407 58.2962 107.693 57.5617 106.794 56.4292C105.626 54.9525 104.566 53.2922 103.66 51.5017L102.108 48.4411C105.388 46.3064 107.055 42.3659 106.064 39.0069C105.196 36.0535 102.492 33.7886 98.9896 33.0847C96.6083 32.6103 94.857 32.4802 90.6092 32.4573H90.6015H90.5939C90.5785 32.4573 90.5631 32.4573 90.5478 32.4573H90.5324C89.0883 32.4573 88.8656 33.6203 88.8579 35.0588C88.8579 35.1583 88.8656 35.2577 88.8732 35.3572C88.904 35.5867 88.9193 35.8163 88.9193 36.0458V54.5929C88.9193 54.7 88.927 54.8071 88.9424 54.9143C89.0115 55.4958 88.8656 56.0773 88.5583 56.4981C88.2664 56.896 87.8516 57.2403 86.7685 57.1026C86.5996 57.0796 86.492 57.0414 86.3461 56.8501C85.4704 55.7177 85.432 52.5729 85.6778 50.8131C85.6855 50.7366 85.6932 50.6524 85.7008 50.5759L86.1156 42.3812C86.1694 41.7155 86.3153 37.9969 83.7575 35.3648C82.6053 34.1789 80.4698 32.8093 76.8289 33.0159C75.6844 33.0847 74.6013 33.2683 73.5874 33.5821C72.2585 33.9952 71.0372 34.7374 70.1 35.7627C69.3242 36.612 68.6329 37.7368 68.9632 38.8233C69.6238 40.9963 71.6977 40.8586 72.8807 39.8409C73.9868 38.8922 75.4002 38.3336 77.1208 38.2341C78.442 38.1576 79.3945 38.4101 79.9629 38.984L79.9706 38.9916C80.4622 39.489 80.4238 40.2618 79.8707 40.6979C79.2255 41.2029 78.3652 41.7002 77.2974 42.167C76.6292 42.4577 75.9379 42.7255 75.2004 43.0163C73.8485 43.5366 72.4505 44.0798 71.1063 44.8297C69.378 45.7861 68.0338 46.9644 67.1273 48.2881C66.8431 48.7089 66.2286 48.7166 65.9214 48.3111C65.5219 47.7831 65.1225 47.2322 64.7154 46.6431C61.7581 42.3583 60.4907 36.0688 60.4676 36.0229C60.0759 35.1583 59.2463 34.5767 58.3015 34.5002C57.3567 34.4237 56.4426 34.8598 55.9126 35.6403L48.815 46.9185C48.6537 47.1634 48.3004 47.171 48.116 46.9415L40.2273 36.8645C39.6819 36.1835 38.8677 35.8469 38.0611 35.8851C36.763 35.8239 35.5878 36.7268 35.3573 38.0352L32.9684 55.0596C32.953 55.1361 32.9454 55.2127 32.9377 55.2892C32.8762 55.9931 32.3078 56.5746 31.6011 56.5899C30.9252 56.5976 30.3491 56.1232 30.2339 55.4575C29.5809 51.517 29.2967 48.1886 29.0202 44.975C28.6976 41.1952 28.3673 37.2853 27.4378 32.4879C27.0538 30.5138 26.5314 27.0018 23.0057 26.5351C21.0162 26.2673 19.7027 28.7004 18.7042 31.1642C18.3969 31.914 17.9821 32.6792 17.6288 33.6892C17.2677 34.7068 16.9144 35.7321 16.5534 36.7574C15.8697 38.7009 15.1938 40.652 14.4871 42.6107C14.3027 43.1387 13.7574 43.4524 13.2043 43.3606C10.6695 42.9474 8.38043 42.6796 5.96081 42.8862C5.96081 42.8862 3.44133 43.2229 3.59496 45.3117C3.66409 46.2911 4.60889 47.2552 5.59979 47.699C6.65213 48.1733 7.80433 48.0968 8.96422 48.0968C10.0626 48.0892 10.608 48.1427 11.7525 48.3799C12.0444 48.4411 12.2134 48.7242 12.1136 49.0074C10.585 53.3993 9.16393 56.8118 7.66607 59.7959C7.66607 59.7959 7.64303 59.8494 7.58926 59.9412C7.18215 60.7293 5.10818 64.5857 2.28145 66.9347C-0.145857 68.9546 -0.261077 70.5461 0.268935 71.3419C0.430244 71.5867 0.645321 71.7551 0.883443 71.8316C1.88202 72.1912 5.13891 72.6656 9.90902 66.5138C13.7881 60.1708 14.2797 57.9748 17.2524 50.2622C20.5016 51.8996 23.3283 54.371 25.2563 57.4392C25.3178 57.5387 25.3946 57.6382 25.4637 57.73C27.1229 60.4692 28.8205 62.9865 31.5474 62.6652C35.7107 62.1755 37.8384 59.222 38.161 55.8707L39.9431 45.9009C39.9892 45.6407 40.3195 45.5566 40.4808 45.7631L46.6258 53.4605C47.1482 54.1109 47.947 54.4781 48.7843 54.4475C49.6216 54.4169 50.3897 53.9884 50.8583 53.2998L56.6346 44.7761C56.8267 44.493 57.2491 44.5083 57.4181 44.8067C58.24 46.2528 59.2386 47.8979 60.3831 49.5582C63.6016 54.2409 66.7894 57.3168 69.9003 58.7706C70.0463 58.8471 70.1922 58.916 70.3382 58.9848C71.5288 59.5204 72.8884 59.7959 74.3017 59.7959C75.5615 59.7959 76.8673 59.5816 78.1501 59.1532C79.1871 58.8012 80.1549 58.3344 81.046 57.8218C81.3455 58.6711 81.7296 59.4133 82.2135 60.0407C83.2044 61.3262 84.5717 62.428 86.1617 62.6193C86.5227 62.6652 86.8838 62.6881 87.2294 62.6881C89.5338 62.6881 91.5003 61.4103 92.8291 59.5969C93.9045 58.1279 94.0735 56.8042 94.1964 54.4322V50.2545C94.1964 49.8796 94.519 49.5889 94.8877 49.6195C95.0183 49.6271 95.1412 49.6424 95.2718 49.6501C95.5253 49.673 95.7788 49.6883 96.0322 49.7113C96.5776 49.7495 97.0692 50.0785 97.315 50.5682L99.0049 53.889C99.9881 55.8248 101.125 57.6382 102.385 59.2756C102.392 59.2832 102.4 59.2909 102.408 59.2985C105.542 62.9253 108.161 64.3255 110.151 64.5857C114.014 65.0601 115.443 61.1425 113.43 60.8212ZM23.3898 47.9285C22.13 46.995 20.7781 46.1763 19.3648 45.4877C19.1958 45.4035 19.1113 45.2046 19.1804 45.0286C19.9716 42.8326 20.7397 40.6443 21.5002 38.456C21.8381 37.4843 22.1761 36.5202 22.5141 35.5561C22.5679 35.5638 22.5832 35.5638 22.5909 35.5638C22.5909 35.5638 22.614 35.5638 22.6677 35.5714C23.2669 39.1446 23.5204 42.1976 23.7969 45.4035C23.8583 46.1304 23.9198 46.8573 23.9889 47.5995C24.012 47.9208 23.6509 48.1198 23.3898 47.9285ZM80.4698 50.201C80.4391 50.4305 80.3854 50.9279 80.3469 51.5935C80.3316 51.8384 80.2087 52.0679 80.009 52.2133C78.9105 53.009 77.7276 53.7512 76.4525 54.1797C75.7919 54.4016 75.1236 54.524 74.4938 54.547C74.3248 54.5164 74.1558 54.4934 73.9791 54.4934C73.4491 54.4934 72.8807 54.3557 72.2738 54.0956C71.3828 53.5982 70.9757 52.6953 71.0909 52.0603C71.2522 51.188 72.2201 50.1857 73.6719 49.3823C74.7012 48.8084 75.8764 48.357 77.1208 47.8749C77.8736 47.5842 78.6571 47.2781 79.4329 46.9415C79.4406 46.9415 79.4405 46.9338 79.4482 46.9338C80.009 46.689 80.6312 47.1098 80.6004 47.7143L80.4698 50.201ZM99.1586 44.1257C98.3597 44.6231 97.4763 44.5695 95.702 44.4165C95.4254 44.3935 95.1412 44.3706 94.8416 44.3476C94.4653 44.317 94.1734 44.0033 94.1734 43.6284V38.479C94.1734 38.0658 94.5267 37.7368 94.9415 37.7597C96.1014 37.8363 96.762 37.9663 97.9603 38.2035C99.4658 38.5096 100.733 39.4354 101.033 40.4683C101.371 41.6314 100.534 43.2764 99.1586 44.1257Z" fill="#19411D"/>
<path d="M197.518 33.9647C197.503 33.9112 197.495 33.827 197.487 33.7122L197.472 33.2914C197.464 33.0925 197.426 32.9547 197.357 32.8629C197.303 32.8017 197.242 32.7405 197.157 32.6946C197.265 32.6257 197.349 32.5416 197.411 32.4421C197.495 32.312 197.533 32.1513 197.533 31.9524C197.533 31.5698 197.38 31.302 197.065 31.1643C196.904 31.0954 196.704 31.0572 196.458 31.0572H194.976V34.3014H195.513V32.9547H196.397C196.558 32.9547 196.673 32.97 196.742 33.0083C196.865 33.0695 196.927 33.1843 196.934 33.3756L196.957 33.8959C196.965 34.0259 196.973 34.1025 196.98 34.1484C196.988 34.1943 197.003 34.2402 197.019 34.2708L197.034 34.3014H197.649V34.1407L197.618 34.1254C197.58 34.1025 197.541 34.0489 197.518 33.9647ZM196.996 31.9907C196.996 32.1819 196.95 32.312 196.85 32.3732C196.75 32.4497 196.604 32.4804 196.42 32.4804H195.521V31.5163H196.473C196.604 31.5163 196.712 31.5392 196.788 31.5775C196.927 31.6617 196.996 31.7917 196.996 31.9907Z" fill="#19411D"/>
<path d="M196.212 29.5116C194.461 29.5116 193.032 30.9348 193.032 32.6793C193.032 34.4238 194.461 35.847 196.212 35.847C197.964 35.847 199.392 34.4238 199.392 32.6793C199.385 30.9271 197.964 29.5116 196.212 29.5116ZM196.212 35.2884C194.768 35.2884 193.593 34.1178 193.593 32.6793C193.593 31.2408 194.768 30.0702 196.212 30.0702C197.656 30.0702 198.832 31.2408 198.832 32.6793C198.832 34.1178 197.656 35.2884 196.212 35.2884Z" fill="#19411D"/>
</g>
<defs>
<clipPath id="clip0_168_526">
<rect width="199.385" height="72" fill="white"/>
</clipPath>
</defs>
</svg>
