<svg width="92" height="93" viewBox="0 0 92 93" fill="none" xmlns="http://www.w3.org/2000/svg">
<path d="M45.4111 0L44.3198 0.0497356L43.7437 0.0686825H43.6002H43.5438L43.4403 0.1871L42.469 0.352886L42.4031 0.364728C42.1562 0.56367 41.8881 0.416832 41.6459 0.544723C40.9328 0.713388 40.1994 0.777994 39.4681 0.73656C39.4023 0.698666 39.2188 1.03261 39.0495 1.02787C38.8143 0.985238 38.6144 0.873925 38.4451 0.86682C37.4762 1.37839 36.4908 1.44233 35.4678 1.57733C35.0771 1.62353 34.6892 1.69153 34.306 1.78101C34.2708 1.78955 34.2362 1.80063 34.2025 1.81416C33.9532 2.13626 33.6875 1.98942 33.3418 1.99416L33.2336 2.01784C32.7695 2.11987 32.2973 2.18011 31.8225 2.19784L31.7614 2.20968H31.7496L31.3592 2.34468C31.0817 2.44652 30.7642 2.55072 30.3762 2.67388C30.4844 2.58862 30.8465 2.43704 30.9053 2.40389C30.6702 2.4702 30.3974 2.5673 30.1363 2.64072L30.0658 2.66441L30.014 2.67625L29.6707 2.85624L29.6189 2.8823C28.5982 3.42702 27.46 3.93148 26.4981 4.50462L26.437 4.53778L26.0184 4.75567L25.9596 4.78409C25.9387 4.79789 25.9167 4.80978 25.8937 4.81961C25.7267 4.89067 25.6585 5.19618 25.6585 5.19618C24.0123 5.50881 22.8976 6.45852 21.4442 7.2235C21.0882 7.42551 20.7081 7.58072 20.313 7.68533L20.2424 7.72086C20.136 7.92361 19.9807 8.09625 19.7909 8.22295L19.7415 8.26084L19.5322 8.41242L19.1018 8.73451C18.8055 8.95477 18.5115 9.19161 18.2293 9.41897L17.8248 9.76238L17.7495 9.82396L17.719 9.87606C17.6888 9.90614 17.6557 9.93312 17.6202 9.95659C17.3003 10.075 16.9546 10.2313 16.8088 10.4989C16.3719 11.1215 15.8609 11.6878 15.2872 12.1852C15.1155 12.3273 14.9462 12.4742 14.7792 12.621L14.6969 12.6944C14.2454 13.1018 13.775 13.4523 13.3541 13.8502L13.2788 13.9212C12.6695 14.3956 12.1481 14.9744 11.7384 15.6312L11.6584 15.707C11.289 15.9833 10.9414 16.2882 10.619 16.6188L10.5672 16.6685C10.3634 16.8501 10.1541 17.0277 9.9393 17.2014L9.87815 17.2654L9.29962 17.829L8.65523 18.7479C8.43887 19.0629 8.23191 19.3637 8.03907 19.6598C8.02731 19.6598 7.98733 19.6787 7.97557 19.7C7.9538 19.717 7.93011 19.7313 7.90502 19.7427C7.38543 20.6081 6.92423 21.5077 6.52453 22.4355L5.9601 23.6978L5.27809 25.2325C5.11582 25.5972 4.95354 25.962 4.80773 26.3172C4.42204 26.5849 4.57256 27.1035 4.30445 27.4517C4.2927 27.4777 4.28094 27.5038 4.27153 27.5298C3.64125 28.9508 3.17325 30.0166 3.14738 30.0829L2.90045 30.765L2.66527 31.4755C2.50849 31.9587 2.35562 32.445 2.20667 32.9344C1.91976 33.9173 1.65871 34.9191 1.43059 35.9351C0.96722 37.9861 0.642713 40.0663 0.459308 42.1616C0.431087 42.46 0.405218 42.7631 0.386404 43.0568C-0.384977 46.183 0.226483 49.3259 0.287629 52.6345C0.314368 51.9475 0.217156 51.2615 0.000713156 50.6095C0.127709 52.085 0.254704 53.5581 0.941422 54.8726L0.583952 54.676C2.23019 59.3274 4.43615 63.8178 5.65907 68.6304L6.01419 69.2935L6.27524 69.8051C6.4281 70.0987 6.52688 70.3166 6.62565 70.5156C6.84888 70.996 7.09614 71.4648 7.36646 71.92C7.72825 72.5119 8.16285 73.0554 8.65993 73.5376C8.53764 73.3623 8.40594 73.1871 8.29071 73.0047C8.13549 72.6755 8.35185 72.9597 8.69286 73.4097C9.03387 73.8597 9.51128 74.4684 9.82641 74.8307C9.73268 74.5703 9.65416 74.3046 9.59124 74.035C9.50361 73.7953 9.39827 73.5625 9.2761 73.3387C9.18155 73.1478 9.07715 72.962 8.96331 72.7821L8.79869 72.4908C9.26904 73.1634 9.75821 73.8242 10.2662 74.4731C10.7021 75.0226 11.1458 75.561 11.5973 76.0883C11.528 76.0063 11.449 75.9331 11.3621 75.8704L11.689 76.2233C11.813 76.3505 11.9285 76.4858 12.0347 76.6283C11.6984 76.2944 11.2422 75.7994 10.8588 75.392C10.6213 75.1135 10.3668 74.8501 10.0969 74.6034C10.4343 74.965 10.7485 75.3478 11.0376 75.7496C11.3364 76.1622 11.6743 76.5445 12.0465 76.8912C11.7083 76.7015 11.4198 76.4336 11.2046 76.1096C11.9101 77.1043 12.7685 77.983 13.0436 78.433C12.6378 77.9383 12.1866 77.4831 11.6961 77.0736C11.9947 77.417 12.4651 77.9333 12.9119 78.3927C13.1471 78.6296 13.3823 78.8522 13.5751 79.0346C13.768 79.2169 13.9561 79.3709 14.0737 79.468C14.1631 79.6531 14.2934 79.8151 14.4547 79.9417C14.6899 80.1785 14.9909 80.4414 15.2637 80.6829C15.774 81.1187 16.1762 81.4574 15.8375 81.2679C15.9928 81.3745 16.2303 81.5616 16.4937 81.77C16.8441 82.059 17.2415 82.3858 17.5049 82.625C17.4015 82.6558 15.9575 81.5687 15.3178 81.114C12.5474 78.7456 15.466 81.0548 14.8733 80.4343L14.3653 79.9606L13.8644 79.4869C13.5257 79.1696 13.2059 78.8427 12.879 78.5135C13.0554 78.7362 12.0018 77.822 13.2788 79.1032C12.2229 78.272 11.2817 77.3027 10.4802 76.221C10.2262 76.0031 10.9059 76.7965 11.1175 77.0404C10.9858 76.9409 10.5931 76.5928 10.4261 76.4815C10.2591 76.3702 10.2827 76.5146 10.9788 77.3341C10.7013 77.012 11.8066 78.1133 11.1034 77.2346C11.261 77.3957 11.4727 77.642 11.7031 77.9025C11.9336 78.163 12.1735 78.433 12.3781 78.6675C12.7826 79.1269 13.0131 79.4277 12.6133 79.1175C13.0154 79.5059 13.6104 80.0411 14.1984 80.5503C14.7863 81.0595 15.3742 81.5308 15.7223 81.8221C15.8681 82.059 15.1108 81.3485 14.7393 81.069C15.5506 81.7605 16.3855 82.4426 17.2298 83.0797C17.0134 82.8618 16.79 82.6511 16.5736 82.4332C17.3471 83.1005 18.1755 83.7003 19.0501 84.226C19.8167 84.6997 20.5646 85.0952 21.3783 85.5665C21.0019 85.4577 20.6442 85.2915 20.3177 85.0739C20.0825 84.927 19.7932 84.7636 19.5204 84.6002C19.2476 84.4368 18.9724 84.2379 18.7043 84.091C18.9475 84.3607 19.2428 84.5775 19.5722 84.7281C19.718 84.8086 19.8403 84.8702 20.0754 85.0052C20.3106 85.1402 20.5881 85.306 20.9997 85.576C21.2043 85.7394 21.2349 85.8128 21.1079 85.7797C21.5782 86.0165 22.0486 86.2391 22.5189 86.4641C22.8388 86.6631 22.7259 86.6299 22.5918 86.5707C23.6948 87.1036 23.716 87.0444 23.8218 87.0444C23.9578 87.0718 24.0888 87.1206 24.2098 87.1888C24.4685 87.3096 24.9154 87.5228 25.7244 87.8993C25.2399 87.6436 24.9154 87.473 24.6355 87.338C24.3557 87.203 24.1652 87.113 23.9817 87.0373C23.4619 86.8221 22.9587 86.5679 22.4766 86.277C22.0603 85.9597 22.5213 86.1847 23.1633 86.4925C23.4808 86.6488 23.8406 86.8194 24.1628 86.9662C24.485 87.113 24.7437 87.2315 24.8683 87.2741C25.635 87.6862 26.0442 87.9633 26.5146 88.2214C27.0855 88.5459 27.6855 88.8155 28.3066 89.0267C28.1164 88.9432 27.9138 88.892 27.7069 88.8751C27.2634 88.7527 26.835 88.5803 26.4299 88.3612C25.8537 88.1409 25.9948 88.2191 26.3029 88.3896C26.6081 88.5361 26.9049 88.6998 27.1919 88.8798C27.4647 88.9888 27.3894 88.9035 27.4271 88.8798C27.4647 88.8562 27.6223 88.8988 28.3678 89.2209H28.2972L28.9275 89.4269C31.7261 89.6188 34.0661 90.4406 36.3826 91.4092L37.1658 91.5892L37.8407 91.7598L37.4974 91.5395C37.8666 91.6106 38.2852 91.6935 38.7203 91.7456C39.1554 91.7977 39.5857 91.864 40.0279 91.9066C40.9004 92.0084 41.707 92.0653 42.2526 92.0842C41.9631 92.1288 41.6692 92.1368 41.3778 92.1079C40.9498 92.0913 40.4206 92.0369 39.8773 91.9942C42.2165 92.3115 44.5846 92.3496 46.9327 92.1079C45.5827 92.0274 45.3875 92.0274 44.1105 91.9232C44.4803 91.8774 44.8528 91.8576 45.2253 91.864C45.5291 91.8597 45.8329 91.8716 46.1354 91.8995C46.9327 91.9702 47.7351 91.9567 48.5295 91.8592C48.6048 92.0179 47.824 92.0369 48.419 92.1624C49.3597 91.9919 50.9683 91.8521 52.0384 91.5916C52.3488 91.6342 52.2406 91.7148 51.7703 91.845C51.4476 91.9262 51.121 91.991 50.7919 92.0392C50.3733 92.0984 49.8677 92.1742 49.2703 92.2216C49.0563 92.2216 48.8 92.2216 48.586 92.2405C48.3719 92.2595 48.1156 92.2595 47.8945 92.2761L46.514 92.3566C46.0578 92.3803 45.6086 92.3945 45.1853 92.3945C44.7862 92.3968 44.3872 92.3755 43.9906 92.3305C44.2893 92.3779 44.5879 92.4111 44.8913 92.4513C43.0805 92.4679 41.9892 92.3566 40.4418 92.2713L40.5053 92.2571L39.6963 92.3187L40.5311 92.4158C39.6239 92.4325 38.7166 92.3897 37.8148 92.2879C38.0782 92.3234 38.2852 92.3637 38.5321 92.3826C38.7791 92.4016 39.0025 92.43 39.2165 92.4419C39.5422 92.4644 39.8691 92.4644 40.1948 92.4419C40.7263 92.4276 41.0862 92.3542 41.7047 92.34C42.8641 92.4348 43.6684 92.5437 44.3833 92.6147C45.0858 92.7011 45.7956 92.7098 46.4999 92.6408C46.6293 92.7119 47.9416 92.7521 46.8927 92.8563C46.2412 92.9226 45.6956 92.8918 45.277 92.9013C44.8584 92.9108 44.5974 92.9013 44.5339 92.9582C45.2206 92.9724 45.4299 92.9866 45.7333 92.9937C45.8814 92.9937 46.0555 93.0079 46.3212 92.9937C46.587 92.9795 46.9468 92.9771 47.4689 92.9558C47.8569 92.7924 49.402 92.5792 50.8578 92.2761C51.6291 92.1411 52.504 92.0037 53.3412 91.845L53.9645 91.7219L54.55 91.6106C54.9451 91.5277 55.2862 91.4732 55.5872 91.414C54.0797 91.7764 52.5675 92.1577 52.9697 92.1955C53.5542 92.0392 54.1481 91.9205 54.7476 91.8403C55.3308 91.7456 55.7424 91.6556 55.5002 91.6035C56.3774 91.414 57.5674 91.1085 58.5575 90.8385C59.1676 90.6253 59.7981 90.4768 60.4389 90.3956C58.9102 90.9353 57.3505 91.3813 55.7683 91.7314C56.161 91.6485 56.5538 91.594 56.3327 91.6935L55.2791 91.9303L54.2302 92.1482C54.6465 92.0937 54.9193 92.0511 55.1521 92.0203C55.3849 91.9895 55.559 91.9611 55.7494 91.9279C56.3656 91.8191 56.9749 91.6744 57.5744 91.4945C57.4357 91.5348 57.184 91.5561 57.3722 91.4945C57.9037 91.3216 58.5198 91.1937 59.0302 91.0066L59.1407 91.1464C59.8792 90.8811 60.9798 90.5472 62.2168 90.0995C63.5476 89.6265 64.8409 89.0525 66.0855 88.3825L65.8503 88.5767C66.5822 88.2312 67.2773 87.8114 67.9246 87.3238C68.4467 86.9354 68.9852 86.5352 70.0247 85.8531C69.4579 86.3054 69.7707 86.1823 69.9212 86.1799C70.1729 85.9975 70.3916 85.8507 70.6267 85.7062C70.8619 85.5618 71.0454 85.441 71.2547 85.3226C71.6686 85.0857 72.0801 84.8489 72.6046 84.496C71.9861 84.8749 72.1601 84.6997 72.3812 84.496C72.6022 84.2923 72.8515 84.065 72.4165 84.3539C72.3412 84.3065 72.8233 83.9134 73.4418 83.4066C74.0603 82.8997 74.8106 82.3053 75.3232 81.8861C75.502 81.7961 75.4008 81.9287 75.1798 82.149C74.9587 82.3692 74.6012 82.6747 74.2743 82.9637C73.6088 83.5179 73.0585 83.9844 73.9028 83.4658C74.2271 83.2322 74.5272 82.9664 74.7988 82.6724C74.8811 82.5634 74.7329 82.6368 74.3708 82.9092C75.0128 82.4024 75.8101 81.7392 76.5532 81.1045C77.2964 80.4698 77.9807 79.8493 78.4346 79.4727L79.9068 77.7343C80.0997 77.4975 80.2714 77.2843 80.436 77.0594C80.6094 76.8209 80.7703 76.5734 80.9181 76.3181C80.2502 77.1257 80.3396 77.2867 79.38 78.1985C79.6599 77.803 79.9562 77.4193 80.2243 77.0144C81.4543 75.5744 82.4679 74.4447 83.2417 73.3789C83.0065 73.7744 82.7407 74.1557 82.4844 74.5371L82.5197 74.4778C82.2829 74.852 82.0281 75.2136 81.7553 75.5625C81.4802 75.9581 81.2309 76.2731 81.3367 76.2233C82.014 75.167 82.7478 74.4565 83.585 73.0545L83.5521 73.116C84.3258 71.8892 85.0266 70.8543 85.6216 69.9069C86.1785 69.062 86.6281 68.1502 86.9598 67.1928C86.7364 67.6664 86.139 68.5451 86.2425 68.2277C86.6306 67.6854 87.3667 66.0749 87.4184 66.1673L87.195 66.7167C87.6862 65.7588 88.1212 64.7726 88.4979 63.7634C88.5226 63.6511 88.5226 63.5347 88.4979 63.4223C88.5206 63.1379 88.5881 62.8589 88.6978 62.5958C89.8972 59.5169 90.1958 56.4049 91.3364 53.2929L91.4023 52.6131C91.5505 51.0263 91.6375 49.3708 91.6798 47.5188C91.7621 47.4856 91.8115 48.2506 91.7903 49.1435C91.7668 49.5958 91.7715 50.0671 91.7315 50.5124L91.6892 51.1211L91.6586 51.5947C91.9456 50.3087 91.8938 48.3761 91.9973 46.5951C92.0279 44.9373 91.7903 43.6939 91.7198 43.9615C91.708 40.84 90.7367 37.4983 90.1253 34.3554C90.5768 36.9417 90.8308 39.8903 91.2824 42.4766C91.1201 41.92 91.153 41.0034 90.9931 40.4469C90.1159 39.4995 90.5415 37.8582 89.8619 36.5485C90.9319 37.1406 90.3464 38.2064 90.5086 38.7748C90.7438 37.4983 89.5044 36.352 90.09 35.272L89.8948 35.632C89.5726 34.5189 89.6055 33.6023 88.7189 32.6502C89.0764 32.8468 88.8788 33.2068 89.2363 33.4034C88.7519 31.7337 88.0604 30.424 87.5901 28.7519C87.9146 29.865 88.7918 30.8171 88.9188 32.2902C89.114 31.9302 88.7566 31.7337 88.9518 31.3737C89.4715 32.1268 89.9912 32.8823 89.956 33.7989C88.987 30.4571 87.2679 27.6411 86.6635 24.4936C86.1767 22.8357 86.4659 24.8536 86.4659 24.8536C85.6593 22.0708 83.5497 19.97 81.8729 17.5117C81.7154 17.3175 81.5789 17.1398 81.4425 16.9622C81.3061 16.7846 81.165 16.6117 81.0286 16.4435C79.3307 14.8804 77.9337 13.1752 75.9864 11.47C75.8477 11.3563 75.7089 11.2331 75.5702 11.1242C75.2856 10.8874 74.994 10.6505 74.6859 10.4137C73.764 9.69133 72.7339 8.89793 71.4663 8.00269L72.2659 8.44321C71.4632 7.80618 70.5961 7.25606 69.679 6.80193C68.8991 6.20204 68.057 5.68906 67.1673 5.27197C66.9556 5.16539 66.7369 5.07303 66.5276 4.95461C64.4278 3.89649 62.2489 3.00563 60.0109 2.2902L59.905 2.25705C59.4407 2.09325 58.9652 1.96344 58.4822 1.86864L58.3928 1.84732L58.0895 1.77627C58.0895 1.73127 58.4752 1.75969 58.2118 1.63417L58.1506 1.60812C57.5062 1.1155 56.6478 1.42338 55.8647 1.18181H55.8012H55.7377H55.6718C55.2015 1.08234 54.8017 0.862083 54.3196 1.0255H54.2443L53.5623 0.947344H53.487C53.2707 0.994712 53.2284 1.23155 53.1625 1.19602C52.3417 0.485514 51.1423 0.779191 50.1311 0.568406L49.9876 0.8384C49.6184 0.719982 49.3268 0.300782 48.9881 0.286572C47.9063 0.213152 46.7868 0.203679 45.658 0.0497356H45.5569H45.404L45.4111 0ZM21.6958 74.1581C21.8816 74.2978 22.0321 74.4234 22.2085 74.5489L22.058 74.466L21.6958 74.1581ZM21.4865 73.9734C19.2773 72.0466 17.31 69.8555 15.6282 67.4485C15.7929 67.6096 15.9692 67.8251 16.2303 68.0951C16.4913 68.3651 16.7571 68.6469 16.9499 68.8293C16.7947 68.7132 16.9734 69.0093 16.8559 68.9075L17.1686 69.2485C17.2721 69.3574 17.385 69.4617 17.4932 69.573L18.1517 70.2148C18.4527 70.6885 18.4974 70.8685 18.241 70.6885C18.5726 71.0769 19.0618 71.5766 19.4546 71.9579C19.8473 72.3392 20.1601 72.6447 20.106 72.7182C21.0655 73.6181 19.8826 72.3416 19.8403 72.2303L19.9367 72.2847C19.6027 71.9579 19.2876 71.6169 18.9677 71.2806C18.996 71.1527 19.2617 71.4534 19.5463 71.7826C19.7539 72.0693 20.0233 72.3049 20.3341 72.4718C20.44 72.4387 20.5693 72.5121 20.7292 72.6518C20.8891 72.7916 21.0538 72.9952 21.2443 73.2131C21.4348 73.431 21.6441 73.6868 21.8463 73.9C22.0295 74.1145 22.2362 74.3076 22.4625 74.4755C22.1313 74.33 21.8078 74.1671 21.4935 73.9876L21.4865 73.9734ZM67.085 86.5257C66.1654 86.9354 65.0954 87.3499 64.3663 87.7288L65.1659 87.1936L65.8033 86.7436C70.217 84.5009 74.2291 81.5339 77.675 77.9641C77.4398 78.2625 77.1153 78.6462 76.7743 79.0346L76.1369 79.7261L75.5913 80.3135C75.7865 80.0624 75.3373 80.4201 75.5043 80.2235C75.1421 80.6001 74.7706 80.9695 74.3849 81.3177C73.9992 81.6658 73.6206 82.0282 73.2255 82.3669C72.4235 82.9021 72.1507 82.966 72.5199 82.6037C71.8144 83.1081 70.8901 83.8068 70.1094 84.3397C69.3286 84.8726 68.6983 85.2444 68.6442 85.1639C66.7628 86.322 69.3145 84.9105 69.4932 84.8323L69.3356 84.9413C69.6649 84.7305 69.9965 84.5197 70.321 84.2971C70.6456 84.0744 70.9701 83.8542 71.2923 83.6244C71.4569 83.6363 70.9043 84.02 70.2693 84.4179C69.7449 84.6986 69.2514 85.0344 68.7971 85.4197C68.6752 85.6351 68.4893 85.8066 68.2656 85.9099C67.8841 86.1285 67.4916 86.3269 67.0897 86.5044L67.085 86.5257ZM65.2341 87.0159L64.5004 87.3925C64.5827 87.3404 64.6556 87.2954 64.7167 87.2504C64.9308 87.158 65.1354 87.0609 65.34 86.9591L65.2341 87.0159ZM52.2665 82.4118C52.2453 82.4133 52.2241 82.4133 52.203 82.4118L52.7204 82.3147L52.2829 82.4L52.2665 82.4118ZM14.3606 79.0227C14.2031 78.8617 14.0431 78.6983 13.8903 78.5348L14.2666 78.8996L14.3606 79.0227ZM22.0744 85.891C21.7748 85.76 21.4855 85.6064 21.209 85.4315C21.1147 85.372 21.0299 85.2986 20.9573 85.2136C20.8579 85.106 20.7448 85.0121 20.621 84.9342C20.4211 84.7921 20.0872 84.5836 19.5181 84.2473C19.3205 84.0437 19.0759 83.8116 18.8549 83.5771C18.6338 83.3426 18.4221 83.1034 18.2763 82.9353C17.9824 82.5705 17.9377 82.4213 18.5821 82.7766C18.2199 82.4924 17.9212 82.2484 17.6413 82.04L16.8888 81.4716C16.4184 81.1093 15.9645 80.7611 15.3413 80.1998C14.9956 79.7664 15.1602 79.8588 15.3931 79.9867C16.5914 81.0767 17.8475 82.1006 19.1559 83.0537L19.0524 82.9968C18.8455 82.8832 18.8008 82.895 19.1441 83.1887C19.4713 83.4792 19.84 83.7187 20.2377 83.8992C20.3307 83.9299 20.4218 83.9663 20.5105 84.0081C21.608 84.7423 22.7345 85.4291 23.89 86.0686C24.5908 86.4539 25.3089 86.8249 26.0442 87.1817C27.0838 87.7338 28.1523 88.2287 29.245 88.6643C29.1556 88.6158 29.0726 88.5561 28.9981 88.4867L29.6189 88.7235C29.3807 88.7718 29.1347 88.7653 28.8993 88.7046C28.6171 88.6359 28.4148 88.5956 28.1937 88.5483C27.9018 88.4792 27.615 88.3898 27.3353 88.2806C27.1402 88.2049 26.9097 88.1243 26.6063 87.9917C26.3029 87.8591 25.9713 87.7146 25.5574 87.518C25.3768 87.4848 25.2018 87.4258 25.0377 87.3428C24.6715 87.1975 24.3142 87.0307 23.9676 86.8431C23.5584 86.6062 23.0881 86.3694 22.6318 86.1065C22.1756 85.8436 21.7052 85.5618 21.2913 85.2823C21.5453 85.4907 21.8063 85.6873 22.0627 85.8791L22.0744 85.891Z" fill="#094111"/>
<path d="M60.3894 32.5267L39.4229 53.4735L31.5952 45.6458C31.2057 45.2563 30.5744 45.2552 30.1835 45.6433L27.2773 48.5291C27.0887 48.7164 26.9824 48.9711 26.9819 49.2369C26.9815 49.5027 27.0869 49.7578 27.2748 49.9458L38.7154 61.3864C39.1059 61.7769 39.7391 61.7769 40.1296 61.3864L64.689 36.827C65.0796 36.4364 65.0796 35.8033 64.689 35.4128L61.8033 32.527C61.4129 32.1366 60.78 32.1365 60.3894 32.5267Z" fill="white" stroke="white" stroke-width="2" stroke-linejoin="round"/>
</svg>
